<svg xmlns="http://www.w3.org/2000/svg" data-name="Layer 1" viewBox="0 0 512 512" id="brother"><path fill="#fdc475" d="M311 126.56h16a24 24 0 0 1 24 24 24 24 0 0 1-24 24h-16v-48zm-110 1-16-1a24 24 0 0 0-24 24 24 24 0 0 0 24 24l16 1"></path><path fill="#ef542a" d="m437.21 436.91-43.99-136.59a59.991 59.991 0 0 0-57.11-41.61H175.89a59.991 59.991 0 0 0-57.11 41.61L74.79 436.91a30 30 0 0 0 28.56 39.19h305.3a30 30 0 0 0 28.56-39.19Zm-265.82 1.65-45.18-.46 45.18-102.62Zm171 0v-99.04l19.33 43.9 24.07 54.68Z"></path><path fill="#ed2d24" d="m94.79 436.91 43.99-136.59a59.991 59.991 0 0 1 57.11-41.61h-20a59.991 59.991 0 0 0-57.11 41.61L74.79 436.91a30 30 0 0 0 28.56 39.19h20a30 30 0 0 1-28.56-39.19Z"></path><path fill="#f7991d" d="M341.304 476.103v28.457H170.696v-28.457"></path><path fill="#ffdaa7" d="M288.5 221.49v37.57a32.5 32.5 0 0 1-65 0v-37.57Z"></path><path fill="#fdc475" d="M243.5 259.06v-37.565h-20v37.565a32.5 32.5 0 0 0 32.5 32.5 32.461 32.461 0 0 0 10-1.575 32.51 32.51 0 0 1-22.5-30.925Z"></path><path fill="#fdc475" d="M288.5 221.49v26.02a65.777 65.777 0 0 1-65 0v-26.02Z"></path><path fill="#ffdaa7" d="M321.67 90.23v80.2a65.67 65.67 0 1 1-131.34 0v-80.2Z"></path><path fill="#fdc475" d="M210.33 170.432V90.228h-20v80.204A65.727 65.727 0 0 0 266 235.347a65.687 65.687 0 0 1-55.67-64.915Z"></path><circle cx="256" cy="122.56" r="7.5" fill="#e5303e"></circle><path fill="#fdd402" d="M205.43 371.72h104.09v84.08H205.43z"></path><path fill="#fbbf13" d="M205.43 371.72h20v84.08h-20z"></path><path fill="#37b678" d="M257.48 318.592a22.991 22.991 0 1 0-15.5 39.98h15.5a7.503 7.503 0 0 0 7.5-7.5v-15.5a22.967 22.967 0 0 0-7.5-16.98Zm-15.5 8.98a8.01 8.01 0 0 1 8 8v8h-8a8 8 0 1 1 0-16Z"></path><path fill="#37b678" d="M272.98 312.572a23.023 23.023 0 0 0-23 23v15.5a7.503 7.503 0 0 0 7.5 7.5h15.5a23 23 0 0 0 0-46Zm0 15a8 8 0 0 1 0 16h-8v-8a8.01 8.01 0 0 1 8-8Z"></path><path fill="#fbbf13" d="M205.43 371.72h104.09v10H205.43z"></path><path fill="#fdd402" d="M319.22 346.54v22.18a3.009 3.009 0 0 1-3 3H198.74a3.002 3.002 0 0 1-3-3v-22.18a3.002 3.002 0 0 1 3-3h117.48a3.009 3.009 0 0 1 3 3Z"></path><path fill="#fbbf13" d="M215.74 368.72v-22.18a3.002 3.002 0 0 1 3-3h-20a3.002 3.002 0 0 0-3 3v22.18a3.002 3.002 0 0 0 3 3h20a3.002 3.002 0 0 1-3-3Z"></path><path fill="#37b678" d="M264.98 343.54V455.8h-15V343.54a7.5 7.5 0 0 1 15 0Z"></path><path fill="#00a653" d="M249.98 371.596h15v10.124h-15z"></path><path fill="#fbbf13" d="M309.52 438.18v17.62h-24.97a19.02 19.02 0 0 1 18.95-17.62Z"></path><path fill="#ffdaa7" d="M408.65 476.183H313.5a19 19 0 0 1 0-38h72.29l-5.95-13.51-15.2-34.53-2.92-6.64h58.26l17.23 53.49a30 30 0 0 1-28.56 39.19Z"></path><path fill="#fbbf13" d="M227.45 455.8h-22.02v-17.62h3.07a19.02 19.02 0 0 1 18.95 17.62Z"></path><path fill="#ffdaa7" d="M217.5 457.183a18.998 18.998 0 0 1-19 19h-95.15a30 30 0 0 1-28.56-39.19l17.23-53.49h58.26l-2.92 6.64-15.2 34.53-5.95 13.51h72.29a19.017 19.017 0 0 1 19 19Z"></path><path fill="#fdc475" d="m94.79 436.993 17.23-53.49h-20l-17.23 53.49a30 30 0 0 0 28.56 39.19h20a30 30 0 0 1-28.56-39.19Z"></path><path fill="#3c3b41" d="m185.253 25.35-9.62-11.544a3 3 0 0 0-5.304 1.92v46.197a38.306 38.306 0 0 0 38.306 38.305H321.67V57.44a20 20 0 0 0-20-20h-90.603a33.603 33.603 0 0 1-25.815-12.09Z"></path><path fill="#2c2b2d" d="M190.33 61.923V30.268a33.604 33.604 0 0 1-5.077-4.919l-9.62-11.543a3 3 0 0 0-5.304 1.92v46.197a38.306 38.306 0 0 0 38.306 38.305h20a38.306 38.306 0 0 1-38.306-38.305Z"></path></svg>