<svg xmlns="http://www.w3.org/2000/svg" data-name="Layer 1" viewBox="0 0 512 512" id="welder"><path fill="#57aafe" d="M433.176 511.999a10 10 0 0 0 10-10V376.366a71.154 71.154 0 0 0-50.693-68.081L299.27 280.18a30.495 30.495 0 0 1-21.726-29.178v-63.63h-86.638v63.63a30.495 30.495 0 0 1-21.725 29.178l-93.213 28.105a71.154 71.154 0 0 0-50.693 68.08V502a10 10 0 0 0 10 10Z"></path><path fill="#f9beac" d="M286.244 272.272a30.398 30.398 0 0 1-8.7-21.27v-48.671l-15.005-14.959h-56.627l-15.006 14.959v48.671a30.398 30.398 0 0 1-8.7 21.27 73.68 73.68 0 0 0 104.038 0Z"></path><path fill="#8fd17a" d="M100.394 511.999V296.702a4 4 0 0 1 2.795-3.814l27.065-8.548a4 4 0 0 1 5.205 3.815l-.003 48.114a7 7 0 0 0 7 7H325.99a7 7 0 0 0 7-7v-48.114a4 4 0 0 1 5.205-3.815l27.065 8.548a4 4 0 0 1 2.796 3.814V512Z"></path><path fill="#f9beac" d="M100.394 445.666h-75.12V502a10 10 0 0 0 10 10h65.12Z"></path><path fill="#343c4a" d="M218.122 3.852h32.206a72.56 72.56 0 0 1 72.561 72.56v64.383H145.561V76.413a72.56 72.56 0 0 1 72.561-72.56Z"></path><path fill="#243047" d="M322.89 76.413a72.2 72.2 0 0 0-10.953-38.324 73.685 73.685 0 0 1-23.657 27.54l4.33 46.421 30.28 16.63Z"></path><path fill="#e58a7b" d="M277.544 251.002v-48.671l-15.005-14.958h-56.627l-15.006 14.958v48.671a30.373 30.373 0 0 1-.179 3.253 111.314 111.314 0 0 0 12.668 9.546 69.64 69.64 0 0 0 75.66 0c.346-.224.681-.462 1.024-.689a30.23 30.23 0 0 1-2.535-12.11Z"></path><path fill="#f9beac" d="M313.182 198.785a111.283 111.283 0 0 1-41.126 47.98 69.64 69.64 0 0 1-75.661 0 111.285 111.285 0 0 1-41.127-47.98 111.286 111.286 0 0 1-9.707-45.456v-41.367a252.482 252.482 0 0 0 45.368-4.746A259.398 259.398 0 0 0 288.28 65.63l34.61 46.333v41.367a111.287 111.287 0 0 1-9.708 45.456Z"></path><path fill="#e58a7b" d="M234.228 225.428a40.388 40.388 0 0 1-17.188-3.866 3.5 3.5 0 1 1 2.998-6.327 33.326 33.326 0 0 0 14.19 3.193h.098a33.344 33.344 0 0 0 14.087-3.193 3.5 3.5 0 1 1 2.997 6.327 40.396 40.396 0 0 1-17.062 3.866zm14.012-49.858v7.148a14.011 14.011 0 0 1-14.011 14.011h-.007a14.011 14.011 0 0 1-14.012-14.011v-7.148a3 3 0 0 1 3-3h22.03a3 3 0 0 1 3 3zM145.561 160.48a25.803 25.803 0 0 1-25.802-25.803 19.482 19.482 0 0 1 19.481-19.482h6.321v45.284ZM322.89 160.48v-45.285h6.32a19.482 19.482 0 0 1 19.482 19.481 25.803 25.803 0 0 1-25.803 25.803Z"></path><path fill="#343c4a" d="M259.804 130.687a3.5 3.5 0 0 1-1.33-6.74 37.377 37.377 0 0 1 28.427 0 3.5 3.5 0 0 1-2.654 6.477 30.384 30.384 0 0 0-23.116 0 3.501 3.501 0 0 1-1.327.263zm12.884 19.534a3.5 3.5 0 0 1-3.5-3.5v-8.2a3.5 3.5 0 0 1 7 0v8.2a3.5 3.5 0 0 1-3.5 3.5zm-64.042-19.534a3.478 3.478 0 0 1-1.326-.263 30.38 30.38 0 0 0-23.114 0 3.5 3.5 0 1 1-2.658-6.477 37.378 37.378 0 0 1 28.427 0 3.5 3.5 0 0 1-1.329 6.74zm-12.884 19.534a3.5 3.5 0 0 1-3.5-3.5v-8.2a3.5 3.5 0 0 1 7 0v8.2a3.5 3.5 0 0 1-3.5 3.5z"></path><path fill="#596381" d="M342.822 287.999h119.807a24.096 24.096 0 0 1 24.096 24.096V455a57 57 0 0 1-57 57h-54a57 57 0 0 1-57-57V312.095A24.096 24.096 0 0 1 342.822 288Z"></path><rect width="112" height="43.732" x="346.725" y="315.999" fill="#d2e9ff" rx="5"></rect><path fill="#a4aed3" d="M318.725 404.434h168v23.37h-168z"></path><circle cx="469.069" cy="305.866" r="3.5" fill="#a4aed3"></circle><circle cx="336.628" cy="305.866" r="3.5" fill="#a4aed3"></circle><circle cx="461.946" cy="473.866" r="3.5" fill="#a4aed3"></circle><circle cx="343.505" cy="473.866" r="3.5" fill="#a4aed3"></circle><circle cx="382.985" cy="473.866" r="3.5" fill="#a4aed3"></circle><circle cx="422.465" cy="473.866" r="3.5" fill="#a4aed3"></circle></svg>