<svg xmlns="http://www.w3.org/2000/svg" data-name="Layer 1" viewBox="0 0 32 32" id="actor"><path fill="#787681" d="M27.5,20V31.5H4.5V20A3,3,0,0,1,7,17.07l9-1.57,9,1.57A3,3,0,0,1,27.5,20Z"></path><path fill="#57565c" d="M25,17.07,16,15.5l-.5.09L24,17.07A3,3,0,0,1,26.5,20V31.5h1V20A3,3,0,0,0,25,17.07Z"></path><rect width="1" height="5.5" x="23" y="26" fill="#57565c"></rect><rect width="1" height="5.5" x="8" y="26" fill="#57565c"></rect><polygon fill="#57565c" points="22 16.5 21.45 21.5 20.32 22.5 21.38 23.5 19.82 31.5 12.18 31.5 10.62 23.5 11.68 22.5 10.54 21.5 10 16.5 16.07 15.5 22 16.5"></polygon><polygon fill="#3c3b41" points="22 16.5 21.02 16.33 20.45 21.5 19.32 22.5 20.38 23.5 18.82 31.5 19.82 31.5 21.38 23.5 20.32 22.5 21.45 21.5 22 16.5"></polygon><polygon fill="#fff" points="18.94 18.74 18.52 20.56 16 31.5 13.48 20.56 13.06 18.73 18.94 18.74"></polygon><path fill="#fdd8ae" d="M18.44,13.5v5a3.63,3.63,0,0,1-5,0v-5Z"></path><path fill="#3c3b41" d="M19.5,17.84v3l-1-.28.42-1.82H13.06l.42,1.83-1,.28v-3l2.79.8a1,1,0,0,1,1.42,0Z"></path><path fill="#e1e1e3" d="M18.94,18.74l-.42,1.82L16.71,20a1,1,0,0,1-1.42,0l-1.81.52-.42-1.83Z"></path><polygon fill="#ed4769" points="19.5 20.5 16 19.5 12.5 20.5 12.5 17.5 16 18.5 19.5 17.5 19.5 20.5"></polygon><circle cx="16" cy="19" r="1" fill="#eb304a"></circle><path fill="#fbbf7d" d="M18.44,13.5v1.94l-.15.1-1.18.7a2,2,0,0,1-2,0l-1.18-.67a3.27,3.27,0,0,1-.48-.35V13.5Z"></path><path fill="#fdd8ae" d="M20.15,9.64c-.15,1-.31,2-.43,2.8a3,3,0,0,1-1.43,2.1l-1.18.7a2,2,0,0,1-2,0l-1.18-.67a3,3,0,0,1-1.5-2.27l-.33-2.83-.5-4.22a1.73,1.73,0,0,0,2.23.94,1.64,1.64,0,0,0,.8-1.53,4.37,4.37,0,0,0,3.52,1.6,4.09,4.09,0,0,0,2.35-1A19.76,19.76,0,0,1,20.15,9.64Z"></path><path fill="#fbbf7d" d="M17.14 6.28l.18 0a4.58 4.58 0 0 1-2.7-1.57 2 2 0 0 1-.15.78A4 4 0 0 0 17.14 6.28zM12.69 6.25a1.93 1.93 0 0 1-1.1-1l.12 1A1.43 1.43 0 0 0 12.69 6.25z"></path><path fill="#fbbf7d" d="M17.14 6.28l.18 0a4.58 4.58 0 0 1-2.7-1.57 2 2 0 0 1-.15.78A4 4 0 0 0 17.14 6.28zM12.69 6.25a1.93 1.93 0 0 1-1.1-1l.12 1A1.43 1.43 0 0 0 12.69 6.25z"></path><path fill="#fbbf7d" d="M20.15,9.64a5.7,5.7,0,0,0-2.08-1.7,3.25,3.25,0,0,0-2.21-.45C15,7.7,15,8.27,14,8.86a4.59,4.59,0,0,1-1.9.63l-.5-4.22a1.73,1.73,0,0,0,2.23.94,1.64,1.64,0,0,0,.8-1.53,4.37,4.37,0,0,0,3.52,1.6,4.09,4.09,0,0,0,2.35-1A19.76,19.76,0,0,1,20.15,9.64Z"></path><path fill="#57565c" d="M20.31,8.87a5.75,5.75,0,0,0-2.24-1.93,3.25,3.25,0,0,0-2.21-.45C15,6.7,15,7.27,14,7.86a3.93,3.93,0,0,1-2.59.58c-1.94-.42-2.64-3-2.68-3.1a5,5,0,0,1,.19-3,2.53,2.53,0,0,0,.65.49,2.34,2.34,0,0,0,1.66.24,4.16,4.16,0,0,0,1.31-.81,8.55,8.55,0,0,1,4-1.74,4.13,4.13,0,0,1,3.5,1c1.71,1.73,1.63,4.72.7,6.6A5.17,5.17,0,0,1,20.31,8.87Z"></path><path fill="#3c3b41" d="M20.07,1.5a4,4,0,0,0-3.26-1,3.58,3.58,0,0,1,2.26,1c1.71,1.73,1.63,4.72.7,6.6a.16.16,0,0,1,0,.07,7.61,7.61,0,0,1,.58.7,5.17,5.17,0,0,0,.46-.77C21.7,6.22,21.78,3.23,20.07,1.5Z"></path><path d="M25.1,16.58,18.94,15.5v-.82a3.51,3.51,0,0,0,1.28-2.16c.14-.91.33-2.16.49-3.36h0a5.47,5.47,0,0,0,.5-.84c1-2.06,1.08-5.27-.79-7.18A4.64,4.64,0,0,0,16.5.05a9.07,9.07,0,0,0-4.27,1.84L12.05,2a2.94,2.94,0,0,1-1,.59,1.73,1.73,0,0,1-1.29-.21A2.2,2.2,0,0,1,9.26,2a.5.5,0,0,0-.82.17,5.44,5.44,0,0,0-.2,3.27c0,.12.79,3,3.06,3.47l.22,0,.4,3.41A3.53,3.53,0,0,0,13,14.5h0v1l-6,1.06A3.49,3.49,0,0,0,4,20V32H28V20A3.49,3.49,0,0,0,25.1,16.58ZM11.51,8c-1.67-.36-2.3-2.71-2.3-2.74a4.24,4.24,0,0,1,0-2,1,1,0,0,0,.17.1,2.73,2.73,0,0,0,2,.27,4.1,4.1,0,0,0,1.31-.76l.17-.13a8,8,0,0,1,3.79-1.64,3.6,3.6,0,0,1,3.08.8c1.5,1.52,1.49,4.26.61,6L20.26,8a5.94,5.94,0,0,0-2-1.51,4.41,4.41,0,0,0-1.91-.57,2.79,2.79,0,0,0-.63.08,2.37,2.37,0,0,0-1.18.75,3.38,3.38,0,0,1-.83.67A3.08,3.08,0,0,1,11.51,8Zm1.4,4.32-.38-3.33a5.05,5.05,0,0,0,1.71-.65,4.33,4.33,0,0,0,1-.84A1.31,1.31,0,0,1,16,7a2.9,2.9,0,0,1,1.88.42A5.28,5.28,0,0,1,19.74,9c-.17,1.21-.36,2.48-.51,3.41A2.5,2.5,0,0,1,18,14.11l-1.18.7a1.51,1.51,0,0,1-1.51,0l-1.19-.67A2.53,2.53,0,0,1,12.91,12.27ZM16,17.5a1.47,1.47,0,0,0-.82.25l-1.24-.36V15.17l.92.52a2.44,2.44,0,0,0,1.23.33,2.57,2.57,0,0,0,1.28-.35l.57-.34v2.1l-1.12.32A1.47,1.47,0,0,0,16,17.5Zm.5,1.5a.5.5,0,1,1-.5-.5A.5.5,0,0,1,16.5,19Zm-1.94.39L13,19.84V18.16l1.56.45a1.3,1.3,0,0,0,0,.78Zm2.88-.78L19,18.16v1.68l-1.56-.45a1.3,1.3,0,0,0,0-.78ZM9,31V26H8v5H5V20a2.49,2.49,0,0,1,2.07-2.46l2.5-.43.5,4.62.87.76-.86.82L11.57,31Zm3.59,0-1.42-7.33,1.25-1.18L11,21.25,10.55,17l2.39-.41v.57L12,16.84v4.32l1-.29L15.37,31ZM14,20.59l1.18-.34a1.47,1.47,0,0,0,1.64,0l1.18.34-2,8.68ZM16.63,31,19,20.87l1,.29V16.84l-1.06.3v-.62l2.51.43L21,21.25l-1.4,1.24,1.25,1.18L19.41,31ZM27,31H24V26H23v5H20.43l1.49-7.67-.86-.82.87-.76.5-4.62,2.5.43A2.49,2.49,0,0,1,27,20Z"></path></svg>