<svg xmlns="http://www.w3.org/2000/svg" data-name="Layer 1" viewBox="0 0 512 512" id="brother"><path fill="#ffdaa7" d="M319.118 144.994h18.48a27.702 27.702 0 0 1 27.701 27.702 27.702 27.702 0 0 1-27.702 27.702h-18.479v-55.404zm-126.998 1.154-18.473-1.154a27.705 27.705 0 0 0-27.708 27.702 27.705 27.705 0 0 0 27.708 27.702l18.473 1.154"></path><path fill="#e5303e" d="M444.76 370.78V504.5H67.24l.52-51.48.8-80.79a69.281 69.281 0 0 1 60.16-67.98l89.38-11.87 37.52-4.98 37.52 4.28 90.19 10.28a69.26 69.26 0 0 1 61.43 68.82Z"></path><path fill="#ffdaa7" d="M218.097 254.573h75.044v43.355a37.518 37.518 0 0 1-37.517 37.517h-.01a37.518 37.518 0 0 1-37.517-37.517v-43.355ZM375.429 504.5v-51.48l3.889.003h65.443l-.002 51.477h-69.33zM66.574 504.5v-51.48l3.889.003h65.443l-.002 51.477h-69.33z"></path><path fill="#ffdaa7" d="M331.438 103.058v92.576a75.819 75.819 0 0 1-151.638 0v-92.576"></path><path fill="#3c3b41" d="M173.94 28.171 156.71 7.5v62.886a44.22 44.22 0 0 0 44.224 44.215h130.504V65.213a23.088 23.088 0 0 0-23.09-23.085H203.743A38.8 38.8 0 0 1 173.94 28.17Z"></path><path fill="#2c2b2d" d="M263.5 140.377a7.5 7.5 0 1 0-7.5 7.498 7.5 7.5 0 0 0 7.5-7.498Zm188.76 312.627V370.78a76.718 76.718 0 0 0-68.08-76.272l-83.54-9.522v-19.318a83.423 83.423 0 0 0 37.39-57.779 35.197 35.197 0 0 0 .91-70.365V103.06l-.001-.039V65.212a30.622 30.622 0 0 0-30.591-30.585H203.744A31.218 31.218 0 0 1 179.7 23.37L162.47 2.7A7.5 7.5 0 0 0 149.21 7.5v62.887a51.7 51.7 0 0 0 23.09 43.04v24.097a35.198 35.198 0 0 0 .91 70.369 83.424 83.424 0 0 0 37.39 57.774v20.143l-82.868 11.005a76.782 76.782 0 0 0-66.672 75.341l-.793 79.496a7.085 7.085 0 0 0-.026 2.574l-.5 50.198a7.5 7.5 0 0 0 7.5 7.576H444.76a7.5 7.5 0 0 0 7.5-7.5V453.023ZM338.94 152.558a20.18 20.18 0 0 1 0 40.277ZM172.3 192.834a20.18 20.18 0 0 1 0-40.274Zm-8.09-122.447V28.212l3.969 4.761a46.176 46.176 0 0 0 35.565 16.654h104.604a15.606 15.606 0 0 1 15.59 15.585v41.889H200.935a36.76 36.76 0 0 1-36.725-36.714ZM187.3 195.63v-75.366a51.593 51.593 0 0 0 13.635 1.837H323.94v73.529a68.32 68.32 0 0 1-136.64 0Zm98.34 77.684v24.616a30.02 30.02 0 1 1-60.04 0v-24.617a83.041 83.041 0 0 0 60.04 0ZM127.339 497H74.816l.364-36.477h52.159Zm309.92 0h-54.33v-36.477h54.33Zm0-51.477h-54.33V390.82a7.5 7.5 0 1 0-15 0V497h-225.59v-43.88c0-.032.005-.064.005-.097s-.005-.064-.005-.096V386.14a7.5 7.5 0 0 0-15 0v59.383h-52.01l.73-73.216a62.095 62.095 0 0 1 53.648-60.622l81.003-10.758a45.012 45.012 0 0 0 89.875-.85l81.897 9.335a61.726 61.726 0 0 1 54.778 61.368Z"></path></svg>